# xmcd CD database file
#
# Track frame offsets:
#	150
#	43180
#	64553
#	104922
#	119368
#	152543
#	173855
#	207875
#	223823
#
# Disc length: 3280 seconds
#
# Revision: 0
# Processed by: cddbd v1.5.2PL0 Copyright (c) Steve Scherf et al.
# Submitted via: CDex 1.51
#
DISCID=840cce09
DTITLE=Oktoposse - Oktoposse geht fremd
DYEAR=2006
DGENRE=Jazz
TTITLE0=Kazzou
TTITLE1=Come Into My House
TTITLE2=ECM ECM
TTITLE3=My Ship
TTITLE4=Dawn
TTITLE5=You Know, I Know
TTITLE6=No Taxi For Daddy
TTITLE7=Snaps
TTITLE8=Love Theme From A Movie
EXTD=YEAR: 2006
EXTT0=
EXTT1=
EXTT2=
EXTT3=
EXTT4=
EXTT5=
EXTT6=
EXTT7=
EXTT8=
PLAYORDER=
